<mxfile host="app.diagrams.net" modified="2021-07-13T17:57:25.627Z" agent="5.0 (Windows)" etag="h8Xmcb7ZXW34pDuH8wZ3" version="14.8.6" type="github">
  <diagram id="5Tzz0ClDsgKRyRQ-VX9l" name="Page-1">
    <mxGraphModel dx="868" dy="468" grid="1" gridSize="10" guides="1" tooltips="1" connect="1" arrows="1" fold="1" page="1" pageScale="1" pageWidth="850" pageHeight="1100" math="0" shadow="0">
      <root>
        <mxCell id="0" />
        <mxCell id="1" parent="0" />
        <mxCell id="WT9n3xnApJSwY2eI3wik-21" style="edgeStyle=none;rounded=0;orthogonalLoop=1;jettySize=auto;html=1;startArrow=none;exitX=0.5;exitY=1;exitDx=0;exitDy=0;" edge="1" parent="1" source="WT9n3xnApJSwY2eI3wik-25" target="WT9n3xnApJSwY2eI3wik-2">
          <mxGeometry relative="1" as="geometry">
            <mxPoint x="350" y="310" as="sourcePoint" />
          </mxGeometry>
        </mxCell>
        <mxCell id="WT9n3xnApJSwY2eI3wik-23" style="edgeStyle=none;rounded=0;orthogonalLoop=1;jettySize=auto;html=1;exitX=1;exitY=0.25;exitDx=0;exitDy=0;" edge="1" parent="1" source="WT9n3xnApJSwY2eI3wik-25" target="WT9n3xnApJSwY2eI3wik-14">
          <mxGeometry relative="1" as="geometry">
            <mxPoint x="440" y="290" as="targetPoint" />
            <Array as="points" />
          </mxGeometry>
        </mxCell>
        <mxCell id="WT9n3xnApJSwY2eI3wik-1" value="" style="points=[];aspect=fixed;html=1;align=center;shadow=0;dashed=0;image;image=img/lib/allied_telesis/computer_and_terminals/Personal_Computer.svg;" vertex="1" parent="1">
          <mxGeometry x="160" y="235" width="44.27" height="60" as="geometry" />
        </mxCell>
        <mxCell id="WT9n3xnApJSwY2eI3wik-22" style="edgeStyle=none;rounded=0;orthogonalLoop=1;jettySize=auto;html=1;entryX=1;entryY=1;entryDx=0;entryDy=0;" edge="1" parent="1" target="WT9n3xnApJSwY2eI3wik-25">
          <mxGeometry relative="1" as="geometry">
            <mxPoint x="400" y="320" as="sourcePoint" />
            <mxPoint x="350" y="280" as="targetPoint" />
          </mxGeometry>
        </mxCell>
        <mxCell id="WT9n3xnApJSwY2eI3wik-2" value="" style="image;html=1;image=img/lib/clip_art/computers/Server_128x128.png" vertex="1" parent="1">
          <mxGeometry x="395.83000000000004" y="320" width="64.17" height="50" as="geometry" />
        </mxCell>
        <mxCell id="WT9n3xnApJSwY2eI3wik-3" value="" style="image;html=1;image=img/lib/clip_art/computers/Database_128x128.png" vertex="1" parent="1">
          <mxGeometry x="500" y="245" width="74.17" height="50" as="geometry" />
        </mxCell>
        <mxCell id="WT9n3xnApJSwY2eI3wik-11" value="Maquina Cliente" style="text;html=1;strokeColor=none;fillColor=none;align=center;verticalAlign=middle;whiteSpace=wrap;rounded=0;" vertex="1" parent="1">
          <mxGeometry x="137.14" y="195" width="90" height="40" as="geometry" />
        </mxCell>
        <mxCell id="WT9n3xnApJSwY2eI3wik-12" value="web server" style="text;html=1;strokeColor=none;fillColor=none;align=center;verticalAlign=middle;whiteSpace=wrap;rounded=0;" vertex="1" parent="1">
          <mxGeometry x="385" y="370" width="90" height="30" as="geometry" />
        </mxCell>
        <mxCell id="WT9n3xnApJSwY2eI3wik-13" value="Base de datos" style="text;html=1;strokeColor=none;fillColor=none;align=center;verticalAlign=middle;whiteSpace=wrap;rounded=0;" vertex="1" parent="1">
          <mxGeometry x="560" y="260" width="100" height="20" as="geometry" />
        </mxCell>
        <mxCell id="WT9n3xnApJSwY2eI3wik-24" style="edgeStyle=none;rounded=0;orthogonalLoop=1;jettySize=auto;html=1;exitX=0;exitY=0.5;exitDx=0;exitDy=0;entryX=0.75;entryY=0;entryDx=0;entryDy=0;" edge="1" parent="1" source="WT9n3xnApJSwY2eI3wik-14" target="WT9n3xnApJSwY2eI3wik-25">
          <mxGeometry relative="1" as="geometry">
            <mxPoint x="420" y="190" as="targetPoint" />
          </mxGeometry>
        </mxCell>
        <mxCell id="WT9n3xnApJSwY2eI3wik-14" value="" style="image;html=1;image=img/lib/clip_art/computers/Server_128x128.png" vertex="1" parent="1">
          <mxGeometry x="400" y="160" width="60" height="50" as="geometry" />
        </mxCell>
        <mxCell id="WT9n3xnApJSwY2eI3wik-15" value="Standby server" style="text;html=1;strokeColor=none;fillColor=none;align=center;verticalAlign=middle;whiteSpace=wrap;rounded=0;" vertex="1" parent="1">
          <mxGeometry x="370" y="120" width="120" height="20" as="geometry" />
        </mxCell>
        <mxCell id="WT9n3xnApJSwY2eI3wik-25" value="" style="image;html=1;image=img/lib/clip_art/networking/Router_Icon_128x128.png" vertex="1" parent="1">
          <mxGeometry x="286.83" y="240" width="53.17" height="50" as="geometry" />
        </mxCell>
        <mxCell id="WT9n3xnApJSwY2eI3wik-29" value="" style="endArrow=classic;startArrow=classic;html=1;exitX=0.25;exitY=0;exitDx=0;exitDy=0;" edge="1" parent="1" source="WT9n3xnApJSwY2eI3wik-3">
          <mxGeometry width="50" height="50" relative="1" as="geometry">
            <mxPoint x="425" y="430" as="sourcePoint" />
            <mxPoint x="460" y="200" as="targetPoint" />
          </mxGeometry>
        </mxCell>
        <mxCell id="WT9n3xnApJSwY2eI3wik-30" value="" style="endArrow=classic;startArrow=classic;html=1;entryX=0.25;entryY=1;entryDx=0;entryDy=0;exitX=1;exitY=0.25;exitDx=0;exitDy=0;" edge="1" parent="1" source="WT9n3xnApJSwY2eI3wik-2" target="WT9n3xnApJSwY2eI3wik-3">
          <mxGeometry width="50" height="50" relative="1" as="geometry">
            <mxPoint x="480" y="320" as="sourcePoint" />
            <mxPoint x="339.9999999999999" y="420" as="targetPoint" />
          </mxGeometry>
        </mxCell>
        <mxCell id="WT9n3xnApJSwY2eI3wik-31" value="" style="endArrow=classic;startArrow=classic;html=1;entryX=0;entryY=0.5;entryDx=0;entryDy=0;" edge="1" parent="1" target="WT9n3xnApJSwY2eI3wik-25">
          <mxGeometry width="50" height="50" relative="1" as="geometry">
            <mxPoint x="209" y="265" as="sourcePoint" />
            <mxPoint x="419.99999999999994" y="160" as="targetPoint" />
          </mxGeometry>
        </mxCell>
        <mxCell id="WT9n3xnApJSwY2eI3wik-37" style="edgeStyle=none;rounded=0;orthogonalLoop=1;jettySize=auto;html=1;" edge="1" parent="1" source="WT9n3xnApJSwY2eI3wik-34" target="WT9n3xnApJSwY2eI3wik-1">
          <mxGeometry relative="1" as="geometry" />
        </mxCell>
        <mxCell id="WT9n3xnApJSwY2eI3wik-34" value="" style="verticalLabelPosition=bottom;html=1;verticalAlign=top;align=center;strokeColor=none;fillColor=#00BEF2;shape=mxgraph.azure.user;" vertex="1" parent="1">
          <mxGeometry x="70" y="240" width="47.5" height="50" as="geometry" />
        </mxCell>
        <mxCell id="WT9n3xnApJSwY2eI3wik-35" value="Usuario" style="text;html=1;strokeColor=none;fillColor=none;align=center;verticalAlign=middle;whiteSpace=wrap;rounded=0;" vertex="1" parent="1">
          <mxGeometry x="69.99999999999994" y="300" width="40" height="20" as="geometry" />
        </mxCell>
        <mxCell id="WT9n3xnApJSwY2eI3wik-38" value="HTTP Request" style="text;html=1;strokeColor=none;fillColor=none;align=center;verticalAlign=middle;whiteSpace=wrap;rounded=0;" vertex="1" parent="1">
          <mxGeometry x="300" y="320" width="40" height="20" as="geometry" />
        </mxCell>
        <mxCell id="WT9n3xnApJSwY2eI3wik-41" value="Public IP" style="text;html=1;strokeColor=none;fillColor=none;align=center;verticalAlign=middle;whiteSpace=wrap;rounded=0;" vertex="1" parent="1">
          <mxGeometry x="290" y="255" width="50" height="20" as="geometry" />
        </mxCell>
      </root>
    </mxGraphModel>
  </diagram>
</mxfile>
